<?xml version="1.0" encoding="iso-8859-1"?>
<!-- Generator: Adobe Illustrator 19.0.0, SVG Export Plug-In . SVG Version: 6.00 Build 0)  -->
<svg version="1.1" id="Layer_1" xmlns="http://www.w3.org/2000/svg" xmlns:xlink="http://www.w3.org/1999/xlink" x="0px" y="0px"
	 viewBox="0 0 512 512" style="enable-background:new 0 0 512 512;" xml:space="preserve">
<circle style="fill:#FFDF47;" cx="255.996" cy="255.997" r="255.996"/>
<path style="fill:#FEC000;" d="M512,256.015c0-0.005,0-0.009,0-0.015c0-0.007,0-0.015,0-0.022c0-1.987-0.03-3.966-0.075-5.942
	c-0.015-0.63-0.037-1.258-0.055-1.888c-0.042-1.378-0.094-2.754-0.157-4.127c-0.032-0.701-0.065-1.401-0.102-2.1
	c-0.077-1.422-0.169-2.84-0.27-4.257c-0.041-0.568-0.073-1.14-0.117-1.707c-0.143-1.844-0.308-3.682-0.49-5.516
	c-0.08-0.811-0.173-1.619-0.261-2.427c-0.118-1.086-0.24-2.169-0.372-3.251c-0.116-0.948-0.236-1.894-0.363-2.839
	c-0.122-0.916-0.253-1.831-0.383-2.744c-0.146-1.016-0.289-2.031-0.448-3.043c-0.099-0.634-0.211-1.264-0.315-1.898
	c-0.371-2.257-0.77-4.503-1.2-6.741c-0.1-0.525-0.197-1.049-0.301-1.573c-0.251-1.264-0.514-2.524-0.784-3.782
	c-0.101-0.472-0.205-0.945-0.308-1.417c-0.296-1.341-0.596-2.68-0.912-4.013c-0.011-0.046-0.023-0.093-0.034-0.139
	c-1.098-4.616-2.324-9.185-3.669-13.701c-0.052-0.177-0.104-0.353-0.157-0.529c-0.442-1.473-0.895-2.942-1.363-4.404
	c-0.001-0.002-0.001-0.003-0.002-0.005l-45.441-45.441c-3.345-4.87-8.948-8.084-15.269-8.084h-36.572l-66.313-66.051
	c-5.148-6.573-13.15-10.81-22.128-10.81H196.956c-15.495,0-28.101,12.607-28.101,28.101v29.535h4.837v4.837h0.48v14.39H71.939
	c-10.181,0-18.511,8.33-18.511,18.511v235.913c0,6.697,3.363,12.636,8.476,16.243l96.731,96.731c0.363,0.513,0.753,1.003,1.161,1.48
	l0,0c29.703,12.055,62.174,18.711,96.203,18.711C397.38,512,511.992,397.394,512,256.015z"/>
<rect x="174.172" y="98.376" style="fill:#3C3B41;" width="18.032" height="29.729"/>
<rect x="318.971" y="98.376" style="fill:#171719;" width="18.032" height="29.729"/>
<g>
	<path style="fill:#57555C;" d="M197.53,76.225h116.035v28.961h28.675V75.651c0-15.495-12.605-28.101-28.101-28.101H196.956
		c-15.495,0-28.101,12.607-28.101,28.101v29.535h28.675L197.53,76.225L197.53,76.225z"/>
	<path style="fill:#57555C;" d="M439.152,124.412H71.939c-10.181,0-18.511,8.33-18.511,18.511v235.913
		c0,10.936,8.947,19.883,19.883,19.883h364.474c10.936,0,19.883-8.947,19.883-19.883V142.928
		C457.668,132.745,449.335,124.412,439.152,124.412z"/>
</g>
<g>
	<path style="fill:#3C3B41;" d="M439.356,124.412h-183.06v274.307h183.06c10.072,0,18.312-8.24,18.312-18.312V142.724
		C457.668,132.653,449.427,124.412,439.356,124.412z"/>
	<path style="fill:#3C3B41;" d="M439.054,124.412H71.939c-10.181,0-18.511,8.33-18.511,18.511v135.149h404.24V143.026
		C457.668,132.788,449.291,124.412,439.054,124.412z"/>
</g>
<path style="fill:#171719;" d="M457.668,142.83c0-10.13-8.288-18.418-18.418-18.418H256.295v153.661h201.373V142.83z"/>
<path style="fill:#57555C;" d="M439.184,124.412H71.917c-10.169,0-18.489,8.32-18.489,18.489v108.923l202.12,26.249l202.12-26.249
	V142.895C457.668,132.73,449.35,124.412,439.184,124.412z"/>
<path style="fill:#3C3B41;" d="M457.668,142.96c0-10.202-8.347-18.549-18.549-18.549H256.295v153.563l201.373-26.151V142.96z"/>
<path style="fill:#FFD400;" d="M262.157,319.225h-13.218c-10.198,0-18.541-8.343-18.541-18.541v-36.465
	c0-10.198,8.343-18.541,18.541-18.541h13.218c10.198,0,18.541,8.343,18.541,18.541v36.465
	C280.698,310.881,272.355,319.225,262.157,319.225z"/>
<path style="fill:#FEC000;" d="M261.288,245.677h-4.992v73.548h4.992c10.676,0,19.411-8.734,19.411-19.411v-34.727
	C280.698,254.412,271.963,245.677,261.288,245.677z"/>
<path style="fill:#FFFFFF;" d="M286.7,286.262h-62.304c-5.29,0-9.619-4.329-9.619-9.619v-2.532c0-5.29,4.329-9.619,9.619-9.619
	H286.7c5.29,0,9.619,4.329,9.619,9.619v2.532C296.319,281.934,291.99,286.262,286.7,286.262z"/>
<path style="fill:#3C3B41;" d="M314.139,47.55h-57.844v28.675h57.27v28.961h28.675V75.651
	C342.24,60.157,329.634,47.55,314.139,47.55z"/>
<path style="fill:#E1E1E3;" d="M286.249,264.493h-29.954v21.77h29.954c5.539,0,10.071-4.532,10.071-10.071v-1.63
	C296.319,269.023,291.788,264.493,286.249,264.493z"/>
<g>
</g>
<g>
</g>
<g>
</g>
<g>
</g>
<g>
</g>
<g>
</g>
<g>
</g>
<g>
</g>
<g>
</g>
<g>
</g>
<g>
</g>
<g>
</g>
<g>
</g>
<g>
</g>
<g>
</g>
</svg>
