<?xml version="1.0" encoding="iso-8859-1"?>
<!-- Generator: Adobe Illustrator 19.0.0, SVG Export Plug-In . SVG Version: 6.00 Build 0)  -->
<svg version="1.1" id="Layer_1" xmlns="http://www.w3.org/2000/svg" xmlns:xlink="http://www.w3.org/1999/xlink" x="0px" y="0px"
	 viewBox="0 0 512 512" style="enable-background:new 0 0 512 512;" xml:space="preserve">
<circle style="fill:#3A4DE3;" cx="255.996" cy="256" r="255.996"/>
<path style="fill:#1C2EDE;" d="M512,256.004c0-11.348-0.748-22.522-2.18-33.481L359.549,72.252
	c-1.163-1.433-2.373-2.824-3.675-4.127c-1.792-1.793-3.712-3.458-5.744-4.98c-4.064-3.045-8.576-5.518-13.417-7.3
	c-0.807-0.297-1.623-0.575-2.447-0.833c-3.298-1.031-6.731-1.746-10.266-2.108c-1.767-0.181-3.56-0.274-5.373-0.274h-62.615h-62.641
	c-29.006,0-52.738,23.732-52.738,52.738v58.381c0,16.479,7.666,31.249,19.601,40.94l68.415,68.684v186.498l53.802,50.776
	C411.408,497.412,512,388.457,512,256.004z"/>
<polygon style="fill:#FFFFFF;" points="318.834,402.874 318.834,376.918 283.35,376.918 283.35,209.386 228.65,209.386 
	228.65,459.874 278.122,459.874 278.122,459.874 318.834,459.874 318.834,421.705 283.35,421.705 283.35,402.874 "/>
<polygon style="fill:#C8C6CC;" points="318.834,402.874 318.834,376.918 283.35,376.918 283.35,209.386 256.001,209.386 
	256.001,459.874 278.122,459.874 278.122,459.874 318.834,459.874 318.834,421.705 283.35,421.705 283.35,402.874 "/>
<path style="fill:#FFFFFF;" d="M193.372,216.491h125.256c29.006,0,52.738-23.732,52.738-52.738v-58.381
	c0-29.006-23.732-52.738-52.738-52.738H193.372c-29.006,0-52.738,23.732-52.738,52.738v58.381
	C140.634,192.758,164.365,216.491,193.372,216.491z M256.001,128.597c-15.259,0-27.629-12.37-27.629-27.629
	c0-15.259,12.37-27.63,27.629-27.63c15.259,0,27.629,12.37,27.629,27.63C283.629,116.228,271.259,128.597,256.001,128.597z"/>
<path style="fill:#E1E1E3;" d="M318.628,52.633h-62.615V73.34c15.253,0.007,27.616,12.374,27.616,27.629
	c0,15.254-12.363,27.621-27.616,27.629v87.893h62.615c29.006,0,52.738-23.732,52.738-52.738v-58.381
	C371.366,76.366,347.634,52.633,318.628,52.633z"/>
<g>
</g>
<g>
</g>
<g>
</g>
<g>
</g>
<g>
</g>
<g>
</g>
<g>
</g>
<g>
</g>
<g>
</g>
<g>
</g>
<g>
</g>
<g>
</g>
<g>
</g>
<g>
</g>
<g>
</g>
</svg>
