<?xml version="1.0" encoding="iso-8859-1"?>
<!-- Generator: Adobe Illustrator 19.0.0, SVG Export Plug-In . SVG Version: 6.00 Build 0)  -->
<svg version="1.1" id="Layer_1" xmlns="http://www.w3.org/2000/svg" xmlns:xlink="http://www.w3.org/1999/xlink" x="0px" y="0px"
	 viewBox="0 0 511.993 511.993" style="enable-background:new 0 0 511.993 511.993;" xml:space="preserve">
<circle style="fill:#394CE2;" cx="255.996" cy="255.996" r="255.996"/>
<path style="fill:#1B2DDD;" d="M511.987,256.992l-168.2-168.2c-21.426-24.341-52.81-39.703-87.787-39.703
	c-64.574,0-116.92,52.347-116.92,116.919c0,26.324,8.701,50.613,23.381,70.156h-0.002c0,0,41.577,54.251,41.577,92.954
	c0,2.838,0.091,5.435,0.257,7.833c-10.227,0.747-18.368,9.328-18.368,19.737v57.451c0,8.176,5.02,15.236,12.129,18.252
	l77.729,78.854C407.597,501.172,511.477,391.269,511.987,256.992z"/>
<path style="fill:#FFFFFF;" d="M372.921,166.009c0-64.573-52.348-116.92-116.92-116.92s-116.921,52.347-116.921,116.92
	c0,26.324,8.701,50.613,23.381,70.156h-0.002c0,0,41.577,54.251,41.577,92.954c0,26.704,7.579,33.202,19.126,33.202
	c11.548,0,54.13,0,65.677,0c11.548,0,19.126-6.498,19.126-33.202c0-38.702,41.576-92.954,41.576-92.954h-0.001
	C364.219,216.621,372.921,192.332,372.921,166.009z"/>
<path style="fill:#C8C6CC;" d="M372.921,166.009c0-64.573-52.348-116.919-116.92-116.919v313.231c13.532,0,27.065,0,32.839,0
	c11.548,0,19.126-6.498,19.126-33.202c0-38.704,41.576-92.954,41.576-92.954h-0.001
	C364.219,216.621,372.921,192.332,372.921,166.009z"/>
<path style="fill:#3C3B41;" d="M306.265,336.878H205.735c-10.896,0-19.811,8.915-19.811,19.811v57.451
	c0,10.896,8.915,19.811,19.811,19.811h8.766c0,22.92,18.58,41.5,41.5,41.5c22.92,0,41.5-18.58,41.5-41.5h8.766
	c10.896,0,19.811-8.915,19.811-19.811v-57.451C326.076,345.793,317.161,336.878,306.265,336.878z"/>
<path style="fill:#29292B;" d="M306.265,336.878h-50.265V475.45c22.92,0,41.5-18.58,41.5-41.5h8.766
	c10.896,0,19.811-8.915,19.811-19.811v-57.451C326.076,345.793,317.161,336.878,306.265,336.878z"/>
<g>
</g>
<g>
</g>
<g>
</g>
<g>
</g>
<g>
</g>
<g>
</g>
<g>
</g>
<g>
</g>
<g>
</g>
<g>
</g>
<g>
</g>
<g>
</g>
<g>
</g>
<g>
</g>
<g>
</g>
</svg>
