<?xml version="1.0" encoding="iso-8859-1"?>
<!-- Generator: Adobe Illustrator 19.0.0, SVG Export Plug-In . SVG Version: 6.00 Build 0)  -->
<svg version="1.1" id="Layer_1" xmlns="http://www.w3.org/2000/svg" xmlns:xlink="http://www.w3.org/1999/xlink" x="0px" y="0px"
	 viewBox="0 0 512 512" style="enable-background:new 0 0 512 512;" xml:space="preserve">
<circle style="fill:#FFB551;" cx="255.998" cy="255.996" r="255.996"/>
<path style="fill:#FF8900;" d="M511.998,256.338c-5.471-20.304-16.526-38.343-31.409-52.361L337.45,60.838
	c-20.424-21.682-49.381-35.243-81.449-35.243c-61.714,0-111.922,50.208-111.922,111.922v70.841h-9.54
	c-14.004,0-25.462,11.458-25.462,25.462v183.752c0,8.212,3.943,15.544,10.026,20.208l63.532,63.532
	C205.88,508.253,230.501,512,256.002,512C397.274,512,511.815,397.568,511.998,256.338z"/>
<path style="fill:#FFFFFF;" d="M367.924,221.09h-38.237v-83.572c0-40.63-33.055-73.685-73.685-73.685s-73.685,33.055-73.685,73.685
	v83.572h-38.238v-83.572c0-61.714,50.208-111.922,111.922-111.922s111.922,50.208,111.922,111.922v83.572H367.924z"/>
<path style="fill:#E1E1E3;" d="M256.002,25.595v38.237c40.629,0,73.685,33.055,73.685,73.685v83.572h38.237v-83.572
	C367.924,75.804,317.715,25.595,256.002,25.595z"/>
<path style="fill:#4B5BE5;" d="M377.463,208.359H134.541c-14.004,0-25.462,11.458-25.462,25.462v183.752
	c0,14.004,11.458,25.462,25.462,25.462h242.923c14.004,0,25.462-11.458,25.462-25.462V233.821
	C402.925,219.816,391.467,208.359,377.463,208.359z"/>
<path style="fill:#1C2EDE;" d="M377.463,208.359H256.002v234.676h121.461c14.004,0,25.462-11.458,25.462-25.462V233.821
	C402.925,219.816,391.467,208.359,377.463,208.359z"/>
<path style="fill:#FFFFFF;" d="M295.881,297.398c0-22.024-17.854-39.878-39.879-39.878s-39.878,17.854-39.878,39.878
	c0,13.039,6.259,24.614,15.936,31.891v40.642c0,13.223,10.719,23.944,23.943,23.944c13.224,0,23.944-10.719,23.944-23.944v-40.642
	C289.622,322.012,295.881,310.437,295.881,297.398z"/>
<path style="fill:#E1E1E3;" d="M279.945,369.929v-40.642c9.676-7.277,15.936-18.852,15.936-31.891
	c0-22.024-17.854-39.878-39.879-39.878v136.353C269.226,393.873,279.945,383.153,279.945,369.929z"/>
<g>
</g>
<g>
</g>
<g>
</g>
<g>
</g>
<g>
</g>
<g>
</g>
<g>
</g>
<g>
</g>
<g>
</g>
<g>
</g>
<g>
</g>
<g>
</g>
<g>
</g>
<g>
</g>
<g>
</g>
</svg>
