<?xml version="1.0" encoding="iso-8859-1"?>
<!-- Generator: Adobe Illustrator 19.0.0, SVG Export Plug-In . SVG Version: 6.00 Build 0)  -->
<svg version="1.1" id="Layer_1" xmlns="http://www.w3.org/2000/svg" xmlns:xlink="http://www.w3.org/1999/xlink" x="0px" y="0px"
	 viewBox="0 0 512 512" style="enable-background:new 0 0 512 512;" xml:space="preserve">
<circle style="fill:#0082D1;" cx="255.996" cy="255.997" r="255.996"/>
<path style="fill:#004DB1;" d="M512,256c0-14.473-1.22-28.659-3.528-42.477L400.887,105.71
	c-17.409-17.409-40.635-26.997-65.401-26.997c-24.766,0-47.993,9.588-65.401,26.997L77.824,297.969l40.649,40.649
	c-2.874,7.523-4.395,15.593-4.395,23.909c0,17.837,6.909,34.569,19.453,47.113l101.5,101.5c6.917,0.561,13.908,0.86,20.97,0.86
	C397.385,512,512,397.385,512,256z"/>
<path style="fill:#FFFFFF;" d="M400.887,105.709c-17.409-17.409-40.635-26.997-65.401-26.997c-24.766,0-47.993,9.588-65.401,26.997
	L77.824,297.97l21.286,21.286l192.261-192.261c11.724-11.724,27.391-18.18,44.115-18.18c16.724,0,32.391,6.456,44.115,18.18
	c11.724,11.723,18.179,27.39,18.179,44.114s-6.456,32.391-18.179,44.115l-0.4,0.4l0,0l-172.73,172.73
	c-6.859,6.859-16.031,10.636-25.827,10.636s-18.968-3.777-25.826-10.636c-6.859-6.859-10.636-16.031-10.636-25.826
	c0-9.797,3.777-18.969,10.636-25.827l107.705-107.706l0,0l62.408-62.408c4.301-4.301,11.299-4.3,15.599,0
	c2.063,2.064,3.199,4.833,3.199,7.8c0,2.966-1.136,5.735-3.199,7.799L179.032,343.683l21.286,21.286l161.497-161.497
	c7.749-7.749,12.016-18.078,12.016-29.085c0-11.009-4.267-21.338-12.016-29.086s-18.079-12.016-29.086-12.016
	s-21.338,4.268-29.086,12.016l-3.963,3.963l-58.443,58.443L133.53,315.413c-12.544,12.544-19.453,29.276-19.453,47.113
	c0,17.837,6.909,34.569,19.453,47.113c12.544,12.545,29.277,19.454,47.114,19.454s34.569-6.909,47.114-19.454l26.314-26.314
	L400.886,236.51c17.409-17.409,26.997-40.635,26.997-65.401S418.296,123.118,400.887,105.709z"/>
<g>
	<path style="fill:#E1E1E3;" d="M343.729,174.388c0,2.966-1.136,5.735-3.199,7.799L179.032,343.686l21.286,21.286l161.497-161.498
		c7.749-7.748,12.016-18.078,12.016-29.085c0-11.009-4.268-21.338-12.016-29.086c-0.573-0.573-1.163-1.119-1.763-1.653
		l-21.426,21.426c0.675,0.426,1.316,0.926,1.903,1.514C342.593,168.651,343.729,171.421,343.729,174.388z"/>
	<path style="fill:#E1E1E3;" d="M427.884,171.111c0-24.766-9.588-47.993-26.997-65.401c-0.485-0.484-0.99-0.939-1.483-1.412
		l-21.286,21.286c0.497,0.466,0.999,0.928,1.483,1.412c11.724,11.723,18.179,27.39,18.179,44.115
		c0,16.724-6.455,32.391-18.179,44.115l-0.4,0.4l0,0l-172.73,172.729c-6.859,6.859-16.031,10.636-25.827,10.636
		s-18.968-3.777-25.827-10.636c-6.859-6.859-10.635-16.031-10.635-25.826c0-1.057,0.052-2.106,0.14-3.148l-26.184,26.184
		c3.276,8.954,8.471,17.155,15.393,24.077c12.545,12.545,29.277,19.453,47.114,19.454c17.837,0,34.57-6.909,47.114-19.454
		l26.314-26.315l146.814-146.814C418.296,219.103,427.884,195.876,427.884,171.111z"/>
</g>
<g>
</g>
<g>
</g>
<g>
</g>
<g>
</g>
<g>
</g>
<g>
</g>
<g>
</g>
<g>
</g>
<g>
</g>
<g>
</g>
<g>
</g>
<g>
</g>
<g>
</g>
<g>
</g>
<g>
</g>
</svg>
