<?xml version="1.0" encoding="iso-8859-1"?>
<!-- Generator: Adobe Illustrator 19.0.0, SVG Export Plug-In . SVG Version: 6.00 Build 0)  -->
<svg version="1.1" id="Layer_1" xmlns="http://www.w3.org/2000/svg" xmlns:xlink="http://www.w3.org/1999/xlink" x="0px" y="0px"
	 viewBox="0 0 512 512" style="enable-background:new 0 0 512 512;" xml:space="preserve">
<circle style="fill:#3A4DE3;" cx="255.996" cy="255.996" r="255.996"/>
<path style="fill:#1C2EDE;" d="M512,255.999c0-24.591-3.475-48.37-9.948-70.88L387.987,71.056H124.013v369.889l61.107,61.107
	c22.51,6.473,46.287,9.948,70.88,9.948C397.385,512,512,397.385,512,255.999z"/>
<polygon style="fill:#FFDF47;" points="387.987,440.945 255.999,338.381 124.013,440.945 124.013,71.056 387.987,71.056 "/>
<polygon style="fill:#FEC000;" points="255.983,71.056 255.983,338.395 255.999,338.381 387.987,440.945 387.987,71.056 "/>
<polygon style="fill:#00A6FF;" points="346.228,360.837 255.999,290.723 165.772,360.837 165.772,107.975 346.228,107.975 "/>
<polygon style="fill:#006EF5;" points="255.999,107.975 255.999,290.723 346.228,360.837 346.228,107.975 "/>
<g>
</g>
<g>
</g>
<g>
</g>
<g>
</g>
<g>
</g>
<g>
</g>
<g>
</g>
<g>
</g>
<g>
</g>
<g>
</g>
<g>
</g>
<g>
</g>
<g>
</g>
<g>
</g>
<g>
</g>
</svg>
